# xmcd CD database file
#
# Track frame offsets:
#	150
#	22762
#	61500
#	90647
#	110607
#	148710
#	174817
#	221270
#	235702
#	258885
#	290252
#
# Disc length: 4100 seconds
#
# Revision: 2
# Processed by: cddbd v1.5.2PL0 Copyright (c) Steve Scherf et al.
# Submitted via: CDex 1.51
#
DISCID=8210020b
DTITLE=Derrick James and Wesley 'G' - Spirit Of The Moment
DYEAR=1900
DGENRE=Jazz
TTITLE0=On The Wes Side
TTITLE1=Freedom
TTITLE2=No Smoking
TTITLE3=Voyage
TTITLE4=Spirit Of The Moment
TTITLE5=Nuages
TTITLE6=Pyramid
TTITLE7=A Detective's Story
TTITLE8=Song For Mel
TTITLE9=For Henry
TTITLE10=Yesterday
EXTD=
EXTT0=
EXTT1=
EXTT2=
EXTT3=
EXTT4=
EXTT5=
EXTT6=
EXTT7=
EXTT8=
EXTT9=
EXTT10=
PLAYORDER=
